<svg width="259" height="214" viewBox="0 0 259 214" fill="none" xmlns="http://www.w3.org/2000/svg">
<path d="M131.252 131.659C119.226 131.542 108.348 126.621 100.448 118.721C92.4563 110.729 87.5096 99.6903 87.504 87.4984H87.5285V87.4739H131.252V131.659Z" fill="#8C6F8F"/>
<path d="M131.728 175.032C143.646 175.148 154.428 180.026 162.258 187.855C170.179 195.776 175.081 206.717 175.087 218.8H175.062V218.825H131.728V175.032Z" fill="#8C6F8F"/>
<path d="M0.000785828 174.876H43.7197V218.95H0.000785828V174.876Z" fill="#ED9E73"/>
<path d="M0.000785828 174.876V131.512H43.7197V174.876H0.000785828Z" fill="#8C6F8F"/>
<path d="M43.4396 0.00634766L87.1953 0.00634766V43.7613H43.4396V0.00634766Z" fill="#ED9E73"/>
<path d="M175.243 174.87H219.143V218.769H175.243V174.87Z" fill="#EB706D"/>
<path d="M174.902 43.7178C186.984 43.7178 196.779 53.5126 196.779 65.5953V65.596C196.779 77.6779 186.984 87.4734 174.902 87.4734C162.819 87.4734 153.024 77.6779 153.024 65.596V65.5953C153.024 53.5126 162.819 43.7178 174.902 43.7178Z" fill="#189EBF"/>
<path d="M0.000785828 87.4377V43.7188H43.7197V87.4377H0.000785828Z" fill="#ED9E73"/>
<path d="M43.7734 0V43.7557H0.0184631C0.0184631 19.5903 19.6081 0 43.7734 0Z" fill="#ED9E73"/>
<path d="M-0.000114441 131.512V87.4377H21.6816V131.512H-0.000114441Z" fill="#EB706D"/>
<path d="M21.6825 131.512V87.4377H43.7197V131.512H21.6825Z" fill="#ED9E73"/>
<path d="M43.7188 65.7566H87.4766V87.7279H43.7188V65.7566Z" fill="#189EBF"/>
<path d="M87.9932 196.779V174.993H131.751V175.007H109.771V196.779H87.9932Z" fill="#EB706D"/>
<path d="M109.771 196.779V175.007H131.751V196.779H109.771Z" fill="#EB706D"/>
<path d="M109.767 218.75V196.778H131.747V218.75H109.767Z" fill="#ED9E73"/>
<path d="M109.771 196.978V175.007H131.751V196.978H109.771Z" fill="#8C6F8F"/>
<path d="M43.7187 65.7559V43.7188H65.7559V65.7559H43.7187Z" fill="#EB706D"/>
<path d="M131.253 109.289V87.4705H153.078V109.289H131.253Z" fill="#EB706D"/>
<path d="M109.334 153.429L131.16 131.61V153.429H109.334Z" fill="#EB706D"/>
<path d="M0.00025177 218.801L43.7734 175.042V218.801H0.00025177Z" fill="#8C6F8F"/>
<path d="M65.6653 43.7657L87.4902 21.9478V43.7657H65.6653Z" fill="#8C6F8F"/>
<path d="M219.099 218.784V196.965H240.924V218.784H219.099Z" fill="#189EBF"/>
<path d="M153.01 65.5106V43.6919H174.835V65.5106H153.01Z" fill="#ED9E73"/>
<path d="M153.306 131.262V109.444H175.132V131.262H153.306Z" fill="#ED9E73"/>
<path d="M109.508 43.6978V43.6971C109.508 31.6474 119.276 21.8792 131.326 21.8792H131.333V43.6978H109.508Z" fill="#ED9E73"/>
<path d="M43.7193 109.256V87.4377H65.5449V109.256H43.7193Z" fill="#189EBF"/>
<path d="M87.793 174.876C87.6763 162.956 82.7672 152.174 74.8881 144.342C66.9153 136.42 55.9043 131.518 43.743 131.512V131.537H43.7186V174.876H87.793Z" fill="#EB706D"/>
<path d="M219.146 174.91C219.029 162.935 214.133 152.102 206.276 144.236C198.326 136.277 187.346 131.351 175.219 131.346V131.37H175.194V174.91H219.146Z" fill="#EB706D"/>
<path d="M87.793 174.876C87.6763 186.992 82.7672 197.951 74.8881 205.909C66.9153 213.961 55.9043 218.945 43.743 218.95V218.926H43.7186V174.876H87.793Z" fill="#8C6F8F"/>
<path d="M0.0150909 172.629V171.004H21.8926V172.629H0.0150909Z" fill="#189EBF"/>
<path d="M0.0150909 168.078V166.454H21.8926V168.078H0.0150909Z" fill="#189EBF"/>
<path d="M0.0150909 163.527V161.903H21.8926V163.527H0.0150909Z" fill="#189EBF"/>
<path d="M166.042 73.1064V120.458H164.419V73.1064H166.042Z" fill="#189EBF"/>
<path d="M170.595 73.1064V120.458H168.971V73.1064H170.595Z" fill="#189EBF"/>
<path d="M175.146 73.1064V120.458H173.522V73.1064H175.146Z" fill="#189EBF"/>
<path d="M0.0150909 158.976V157.352H21.8926V158.976H0.0150909Z" fill="#189EBF"/>
<path d="M0.0150909 154.418V152.795H21.8926V154.418H0.0150909Z" fill="#189EBF"/>
<path d="M0.0150909 149.868V148.245H21.8926V149.868H0.0150909Z" fill="#189EBF"/>
<path d="M0.0150909 145.318V143.694H21.8926V145.318H0.0150909Z" fill="#189EBF"/>
<path d="M0.0150909 140.76V139.136H21.8926V140.76H0.0150909Z" fill="#189EBF"/>
<path d="M0.0150909 136.21V134.586H21.8926V136.21H0.0150909Z" fill="#189EBF"/>
<path d="M0.0149384 87.4705V43.7576H1.33111C12.7767 44.4576 21.8574 53.9647 21.8574 65.593C21.8574 71.6347 19.4071 77.1024 15.4447 81.0648C11.4955 85.0133 6.03492 87.4635 0.0149384 87.4705Z" fill="#8C6F8F"/>
<path d="M87.4982 43.7178H131.254V87.4734H87.4982V43.7178Z" fill="#8C6F8F"/>
<path d="M240.393 189.35C240.393 188.533 241.055 187.871 241.872 187.871C242.688 187.871 243.35 188.533 243.35 189.35C243.35 190.166 242.688 190.828 241.872 190.828C241.055 190.828 240.393 190.166 240.393 189.35Z" fill="#8C6F8F"/>
<path d="M240.393 181.627C240.393 180.811 241.055 180.149 241.872 180.149C242.688 180.149 243.35 180.811 243.35 181.627C243.35 182.443 242.688 183.106 241.872 183.106C241.055 183.106 240.393 182.443 240.393 181.627Z" fill="#8C6F8F"/>
<path d="M232.872 189.35C232.872 188.533 233.534 187.871 234.35 187.871C235.166 187.871 235.828 188.533 235.828 189.35C235.828 190.166 235.166 190.828 234.35 190.828C233.534 190.828 232.872 190.166 232.872 189.35Z" fill="#8C6F8F"/>
<path d="M232.872 181.627C232.872 180.811 233.534 180.149 234.35 180.149C235.166 180.149 235.828 180.811 235.828 181.627C235.828 182.443 235.166 183.106 234.35 183.106C233.534 183.106 232.872 182.443 232.872 181.627Z" fill="#8C6F8F"/>
<path d="M255.618 189.35C255.618 188.533 256.28 187.871 257.096 187.871C257.913 187.871 258.574 188.533 258.574 189.35C258.574 190.166 257.913 190.828 257.096 190.828C256.28 190.828 255.618 190.166 255.618 189.35Z" fill="#8C6F8F"/>
<path d="M255.618 181.627C255.618 180.811 256.28 180.149 257.096 180.149C257.913 180.149 258.574 180.811 258.574 181.627C258.574 182.443 257.913 183.106 257.096 183.106C256.28 183.106 255.618 182.443 255.618 181.627Z" fill="#8C6F8F"/>
<path d="M248.097 189.35C248.097 188.533 248.759 187.871 249.576 187.871C250.392 187.871 251.054 188.533 251.054 189.35C251.054 190.166 250.392 190.828 249.576 190.828C248.759 190.828 248.097 190.166 248.097 189.35Z" fill="#8C6F8F"/>
<path d="M248.097 181.627C248.097 180.811 248.759 180.149 249.576 180.149C250.392 180.149 251.054 180.811 251.054 181.627C251.054 182.443 250.392 183.106 249.576 183.106C248.759 183.106 248.097 182.443 248.097 181.627Z" fill="#8C6F8F"/>
<path d="M209.976 189.35C209.976 188.533 210.637 187.871 211.453 187.871C212.269 187.871 212.932 188.533 212.932 189.35C212.932 190.166 212.269 190.828 211.453 190.828C210.637 190.828 209.976 190.166 209.976 189.35Z" fill="#8C6F8F"/>
<path d="M209.976 181.627C209.976 180.811 210.637 180.149 211.453 180.149C212.269 180.149 212.932 180.811 212.932 181.627C212.932 182.443 212.269 183.106 211.453 183.106C210.637 183.106 209.976 182.443 209.976 181.627Z" fill="#8C6F8F"/>
<path d="M202.456 189.35C202.456 188.533 203.117 187.871 203.934 187.871C204.75 187.871 205.412 188.533 205.412 189.35C205.412 190.166 204.75 190.828 203.934 190.828C203.117 190.828 202.456 190.166 202.456 189.35Z" fill="#8C6F8F"/>
<path d="M202.456 181.627C202.456 180.811 203.117 180.149 203.934 180.149C204.75 180.149 205.412 180.811 205.412 181.627C205.412 182.443 204.75 183.106 203.934 183.106C203.117 183.106 202.456 182.443 202.456 181.627Z" fill="#8C6F8F"/>
<path d="M225.2 189.35C225.2 188.533 225.861 187.871 226.678 187.871C227.494 187.871 228.156 188.533 228.156 189.35C228.156 190.166 227.494 190.828 226.678 190.828C225.861 190.828 225.2 190.166 225.2 189.35Z" fill="#8C6F8F"/>
<path d="M225.2 181.627C225.2 180.811 225.861 180.149 226.678 180.149C227.494 180.149 228.156 180.811 228.156 181.627C228.156 182.443 227.494 183.106 226.678 183.106C225.861 183.106 225.2 182.443 225.2 181.627Z" fill="#8C6F8F"/>
<path d="M217.679 189.35C217.679 188.533 218.341 187.871 219.157 187.871C219.973 187.871 220.636 188.533 220.636 189.35C220.636 190.166 219.973 190.828 219.157 190.828C218.341 190.828 217.679 190.166 217.679 189.35Z" fill="#8C6F8F"/>
<path d="M217.679 181.627C217.679 180.811 218.341 180.149 219.157 180.149C219.973 180.149 220.636 180.811 220.636 181.627C220.636 182.443 219.973 183.106 219.157 183.106C218.341 183.106 217.679 182.443 217.679 181.627Z" fill="#8C6F8F"/>
<path d="M79.4723 102.772C79.4723 101.956 80.1338 101.294 80.9501 101.294C81.7664 101.294 82.4287 101.956 82.4287 102.772C82.4287 103.588 81.7664 104.25 80.9501 104.25C80.1338 104.25 79.4723 103.588 79.4723 102.772Z" fill="#8C6F8F"/>
<path d="M79.4723 95.0499C79.4723 94.2336 80.1338 93.572 80.9501 93.572C81.7664 93.572 82.4287 94.2336 82.4287 95.0499C82.4287 95.8662 81.7664 96.5278 80.9501 96.5278C80.1338 96.5278 79.4723 95.8662 79.4723 95.0499Z" fill="#8C6F8F"/>
<path d="M71.9515 102.772C71.9515 101.956 72.6131 101.294 73.4294 101.294C74.2457 101.294 74.9072 101.956 74.9072 102.772C74.9072 103.588 74.2457 104.25 73.4294 104.25C72.6131 104.25 71.9515 103.588 71.9515 102.772Z" fill="#8C6F8F"/>
<path d="M71.9515 95.0499C71.9515 94.2336 72.6131 93.572 73.4294 93.572C74.2457 93.572 74.9072 94.2336 74.9072 95.0499C74.9072 95.8662 74.2457 96.5278 73.4294 96.5278C72.6131 96.5278 71.9515 95.8662 71.9515 95.0499Z" fill="#8C6F8F"/>
<path d="M159.162 163.729C159.162 161.582 160.902 159.841 163.049 159.841C165.196 159.841 166.938 161.582 166.938 163.729C166.938 165.876 165.196 167.617 163.049 167.617C160.902 167.617 159.162 165.876 159.162 163.729Z" fill="#189EBF"/>
<path d="M159.162 143.416C159.162 141.268 160.902 139.528 163.049 139.528C165.196 139.528 166.938 141.268 166.938 143.416C166.938 145.563 165.196 147.304 163.049 147.304C160.902 147.304 159.162 145.563 159.162 143.416Z" fill="#189EBF"/>
<path d="M139.378 163.729C139.378 161.582 141.119 159.841 143.266 159.841C145.413 159.841 147.154 161.582 147.154 163.729C147.154 165.876 145.413 167.617 143.266 167.617C141.119 167.617 139.378 165.876 139.378 163.729Z" fill="#189EBF"/>
<path d="M139.378 143.416C139.378 141.268 141.119 139.528 143.266 139.528C145.413 139.528 147.154 141.268 147.154 143.416C147.154 145.563 145.413 147.304 143.266 147.304C141.119 147.304 139.378 145.563 139.378 143.416Z" fill="#189EBF"/>
</svg>
